<svg xmlns="http://www.w3.org/2000/svg" viewBox="0 0 54 54"><defs><style>.cls-1{fill:#5752a3;}.cls-2,.cls-3{fill:none;stroke:#fff;stroke-linecap:round;stroke-width:2px;}.cls-2{stroke-linejoin:round;}.cls-3{stroke-miterlimit:10;}</style></defs><title>Group 65</title><g id="Layer_2" data-name="Layer 2"><g id="Layer_1-2" data-name="Layer 1"><g id="Group_65" data-name="Group 65"><circle id="Ellipse_6" data-name="Ellipse 6" class="cls-1" cx="27" cy="27" r="27"/><g id="Group_22" data-name="Group 22"><path id="Path_27" data-name="Path 27" class="cls-2" d="M20.84,26.45v6a1.12,1.12,0,0,0,.37.88c.7.7,2.47,1.9,6,1.9s5.3-1.2,6-1.9a1.23,1.23,0,0,0,.38-.88v-6"/><path id="Path_28" data-name="Path 28" class="cls-2" d="M26.2,28.72l-8.4-3.53a1.3,1.3,0,0,1,0-2.4l8.4-3.6a2.71,2.71,0,0,1,2,0l8.4,3.6a1.3,1.3,0,0,1,0,2.4l-8.4,3.6A3.18,3.18,0,0,1,26.2,28.72Z"/><line id="Line_9" data-name="Line 9" class="cls-3" x1="37.57" y1="23.93" x2="37.57" y2="31.37"/></g></g></g></g></svg>