<svg xmlns="http://www.w3.org/2000/svg" viewBox="0 0 54 54"><defs><style>.cls-1{fill:#5752a3;}.cls-2,.cls-3{fill:none;stroke:#fff;stroke-miterlimit:10;stroke-width:2px;}.cls-3{stroke-linecap:round;}</style></defs><title>Group 66</title><g id="Layer_2" data-name="Layer 2"><g id="Layer_1-2" data-name="Layer 1"><g id="Group_66" data-name="Group 66"><circle id="Ellipse_7" data-name="Ellipse 7" class="cls-1" cx="27" cy="27" r="27"/><g id="Group_23" data-name="Group 23"><path id="Path_25" data-name="Path 25" class="cls-2" d="M25.22,34.26,20,33.68l-.59-5.25a5.88,5.88,0,0,1,1.45-4.57,27.28,27.28,0,0,1,4.87-4.55c2.95-1.89,6.5-3.69,9.41-.78s1.4,6.28-.78,9.41a30.44,30.44,0,0,1-4.55,4.87A5.88,5.88,0,0,1,25.22,34.26Z"/><path id="Path_26" data-name="Path 26" class="cls-3" d="M18,36.25C21.38,31.62,26.3,26.18,29.7,24"/><line id="Line_7" data-name="Line 7" class="cls-3" x1="31.27" y1="30.92" x2="28.03" y2="30.38"/><line id="Line_8" data-name="Line 8" class="cls-3" x1="24.9" y1="20.06" x2="25.44" y2="23.42"/></g></g></g></g></svg>